<svg width="71" height="24" viewBox="0 0 71 24" fill="none" xmlns="http://www.w3.org/2000/svg">
<g filter="url(#filter0_i)">
<path fill-rule="evenodd" clip-rule="evenodd" d="M1.41422 10.5858C0.633168 11.3668 0.633168 12.6332 1.41422 13.4142L10.5858 22.5858C11.3668 23.3668 12.6332 23.3668 13.4142 22.5858L22.5858 13.4142C23.3668 12.6332 23.3668 11.3668 22.5858 10.5858L13.4142 1.4142C12.6332 0.633153 11.3668 0.633153 10.5858 1.4142L8.72163 3.27836C9.13777 3.68022 9.62912 4.16441 10.2109 4.7459C12.1373 6.67121 13.7261 8.23369 13.7417 8.21808C13.7573 8.20248 13.7752 8.16108 13.8785 7.83859C14.2516 6.67406 14.4746 6.71144 15.4681 8.10491L15.8498 8.64036H16.8055C17.7025 8.64036 17.7699 8.64856 17.9029 8.7734C18.1485 9.00422 18.0904 9.17342 17.4846 9.99227L16.9248 10.7489L17.2092 11.6092C17.6959 13.0806 17.5686 13.2038 16.076 12.7064L15.2394 12.4276L14.4964 12.9817C13.3039 13.8712 13.1489 13.7951 13.1489 12.3202V11.3494L12.461 10.8669C11.2201 9.99661 11.1318 9.77374 12.2924 9.41557C12.5231 9.34439 12.7189 9.34132 12.765 9.25671C12.8698 9.06429 12.2004 8.45018 9.40639 5.65461C8.80169 5.04957 8.29839 4.54359 7.88088 4.11911L1.41422 10.5858ZM19.1102 10.587C19.1889 10.7617 19.2912 10.8598 19.5003 10.9613L19.7836 11.099L19.4966 11.2619C19.3335 11.3543 19.1796 11.4966 19.1405 11.591C19.0122 11.9007 18.9234 11.9157 18.7724 11.6535C18.697 11.5225 18.528 11.3535 18.397 11.2781C18.1347 11.1272 18.1499 11.0383 18.4597 10.91C18.5512 10.8721 18.6811 10.7402 18.7483 10.6169C18.9136 10.3138 18.9844 10.308 19.1102 10.587ZM15.8428 13.9123C15.8832 14.0008 15.982 14.1031 16.0624 14.1398C16.2413 14.2213 16.2501 14.31 16.0846 14.3625C16.0164 14.3842 15.9178 14.4673 15.8654 14.5472L15.7702 14.6926L15.3363 14.2587L15.4693 14.1268C15.5424 14.0542 15.6399 13.9401 15.6859 13.8731C15.7675 13.7543 15.7713 13.7552 15.8428 13.9123ZM10.794 13.148C11.0867 13.2478 11.2891 13.2312 11.6955 13.0746C11.8249 13.0247 11.8349 13.1384 11.7317 13.4831C11.6771 13.6653 11.6783 13.7981 11.7372 14.0609C11.831 14.4799 11.824 14.4873 11.4398 14.3746C11.1652 14.2941 11.0938 14.2941 10.8192 14.3746C10.4366 14.4868 10.4244 14.475 10.5186 14.0823C10.5797 13.8274 10.5792 13.701 10.5156 13.4361C10.4184 13.0309 10.4263 13.0227 10.794 13.148ZM9.29323 10.1694C9.37419 10.3281 9.50294 10.4569 9.66162 10.5378C9.96368 10.6919 9.96563 10.7365 9.67612 10.867C9.53262 10.9318 9.39432 11.0614 9.30712 11.2129C9.13602 11.5102 9.10732 11.5121 8.95849 11.2357C8.89344 11.115 8.73593 10.9566 8.60846 10.8839C8.31987 10.7191 8.32023 10.6988 8.61489 10.5332C8.76818 10.4471 8.89228 10.3138 8.96076 10.1621C9.09465 9.86511 9.13847 9.86608 9.29323 10.1694Z" fill="#F54D27"/>
<path d="M16.1248 11.2705C15.8997 10.6633 15.9121 10.5628 16.2698 10.0902C16.4724 9.82263 16.5741 9.68964 16.5413 9.62355C16.5084 9.5575 16.3411 9.55828 16.0059 9.55828C15.7161 9.55828 15.5592 9.5597 15.4305 9.50016C15.2735 9.42749 15.1586 9.26403 14.8953 8.8964C14.6238 8.51724 14.6142 8.52232 14.4329 9.14326C14.2665 9.71292 14.229 9.74939 13.6101 9.94307C13.004 10.1327 13.0024 10.1405 13.4939 10.4756C14.0432 10.8502 14.0668 10.8937 14.0668 11.5301C14.0668 11.8428 14.0667 12.0013 14.1304 12.0334C14.1959 12.0664 14.3288 11.9657 14.5988 11.7613C15.0667 11.4071 15.1014 11.4026 15.7381 11.6146C16.3225 11.8093 16.324 11.8078 16.1248 11.2705Z" fill="#F54D27"/>
</g>
<path d="M31.891 17.2516C31.1843 17.2516 30.5176 17.1182 29.891 16.8516C29.2643 16.5716 28.7176 16.1982 28.251 15.7316C27.7976 15.2649 27.4376 14.7116 27.171 14.0716C26.9043 13.4316 26.771 12.7516 26.771 12.0316C26.771 11.3116 26.9043 10.6316 27.171 9.99157C27.4376 9.35157 27.7976 8.79823 28.251 8.33157C28.7176 7.8649 29.2643 7.49823 29.891 7.23157C30.531 6.95157 31.211 6.81157 31.931 6.81157C32.4776 6.81157 33.0043 6.89823 33.511 7.07157C34.031 7.2449 34.511 7.49823 34.951 7.83157V6.99157H36.931V17.3116C36.931 18.6316 36.5243 19.6449 35.711 20.3516C34.911 21.0716 33.7643 21.4316 32.271 21.4316C31.5376 21.4316 30.811 21.3449 30.091 21.1716C29.3843 20.9982 28.7443 20.7516 28.171 20.4316L28.951 18.8716C29.5243 19.1649 30.0776 19.3849 30.611 19.5316C31.1443 19.6782 31.6776 19.7516 32.211 19.7516C33.091 19.7516 33.7643 19.5449 34.231 19.1316C34.6976 18.7182 34.931 18.1116 34.931 17.3116V16.1716C34.5043 16.5182 34.031 16.7849 33.511 16.9716C32.991 17.1582 32.451 17.2516 31.891 17.2516ZM28.731 12.0316C28.731 13.0049 29.0576 13.8316 29.711 14.5116C30.3643 15.1782 31.171 15.5116 32.131 15.5116C32.7043 15.5116 33.231 15.4116 33.711 15.2116C34.191 14.9982 34.5976 14.7049 34.931 14.3316V9.73157C34.611 9.35823 34.2043 9.07157 33.711 8.87157C33.231 8.65823 32.7043 8.55157 32.131 8.55157C31.171 8.55157 30.3643 8.89157 29.711 9.57157C29.0576 10.2382 28.731 11.0582 28.731 12.0316Z" fill="black"/>
<path d="M39.2817 17.1716V6.99157H41.2817V7.95157C41.6551 7.57823 42.0817 7.29157 42.5617 7.09157C43.0417 6.89157 43.5684 6.79156 44.1417 6.79156C44.8217 6.79156 45.4351 6.9449 45.9817 7.25157C46.5284 7.5449 46.9617 7.95823 47.2817 8.49157C47.6951 7.93157 48.1884 7.51157 48.7617 7.23157C49.3484 6.93823 50.0017 6.79156 50.7217 6.79156C51.8417 6.79156 52.7551 7.1649 53.4617 7.91157C54.1817 8.6449 54.5417 9.59823 54.5417 10.7716V17.1716H52.5417V11.1116C52.5417 10.3116 52.3284 9.6849 51.9017 9.23157C51.4884 8.7649 50.9217 8.53157 50.2017 8.53157C49.7084 8.53157 49.2617 8.6449 48.8617 8.87157C48.4617 9.09823 48.1151 9.43823 47.8217 9.89157C47.8484 10.0249 47.8684 10.1716 47.8817 10.3316C47.8951 10.4782 47.9017 10.6249 47.9017 10.7716V17.1716H45.9217V11.1116C45.9217 10.3116 45.7084 9.6849 45.2817 9.23157C44.8684 8.7649 44.3017 8.53157 43.5817 8.53157C43.1017 8.53157 42.6684 8.63823 42.2817 8.85157C41.8951 9.05157 41.5617 9.35823 41.2817 9.77157V17.1716H39.2817Z" fill="black"/>
<path d="M61.7003 15.5916C62.207 15.5916 62.687 15.4916 63.1403 15.2916C63.5937 15.0782 64.027 14.7649 64.4403 14.3516L65.6403 15.6516C65.107 16.1849 64.4937 16.6049 63.8003 16.9116C63.107 17.2049 62.3803 17.3516 61.6203 17.3516C60.887 17.3516 60.2003 17.2182 59.5603 16.9516C58.9203 16.6716 58.367 16.2982 57.9003 15.8316C57.4337 15.3649 57.0603 14.8116 56.7803 14.1716C56.5137 13.5182 56.3803 12.8182 56.3803 12.0716C56.3803 11.3382 56.5137 10.6516 56.7803 10.0116C57.0603 9.35823 57.4337 8.79823 57.9003 8.33157C58.367 7.85157 58.9203 7.47823 59.5603 7.21157C60.2003 6.93157 60.887 6.79156 61.6203 6.79156C62.3803 6.79156 63.1203 6.9449 63.8403 7.25157C64.5603 7.5449 65.187 7.95823 65.7203 8.49157L64.4603 9.85157C64.0737 9.43823 63.6403 9.1249 63.1603 8.91157C62.6803 8.6849 62.1803 8.57157 61.6603 8.57157C60.7403 8.57157 59.9603 8.91157 59.3203 9.59157C58.6803 10.2716 58.3603 11.0982 58.3603 12.0716C58.3603 13.0716 58.6803 13.9116 59.3203 14.5916C59.9737 15.2582 60.767 15.5916 61.7003 15.5916Z" fill="black"/>
<defs>
<filter id="filter0_i" x="0.82843" y="0.828415" width="22.3432" height="22.3432" filterUnits="userSpaceOnUse" color-interpolation-filters="sRGB">
<feFlood flood-opacity="0" result="BackgroundImageFix"/>
<feBlend mode="normal" in="SourceGraphic" in2="BackgroundImageFix" result="shape"/>
<feColorMatrix in="SourceAlpha" type="matrix" values="0 0 0 0 0 0 0 0 0 0 0 0 0 0 0 0 0 0 127 0" result="hardAlpha"/>
<feOffset/>
<feGaussianBlur stdDeviation="1.5"/>
<feComposite in2="hardAlpha" operator="arithmetic" k2="-1" k3="1"/>
<feColorMatrix type="matrix" values="0 0 0 0 0 0 0 0 0 0 0 0 0 0 0 0 0 0 0.18 0"/>
<feBlend mode="normal" in2="shape" result="effect1_innerShadow"/>
</filter>
</defs>
</svg>
