<svg width="24" height="24" viewBox="0 0 24 24" fill="none" xmlns="http://www.w3.org/2000/svg">
<g filter="url(#filter0_i)">
<path fill-rule="evenodd" clip-rule="evenodd" d="M1.41422 10.5858C0.633168 11.3668 0.633168 12.6332 1.41422 13.4142L10.5858 22.5858C11.3668 23.3668 12.6332 23.3668 13.4142 22.5858L22.5858 13.4142C23.3668 12.6332 23.3668 11.3668 22.5858 10.5858L13.4142 1.4142C12.6332 0.633153 11.3668 0.633153 10.5858 1.4142L8.72163 3.27836C9.13777 3.68022 9.62912 4.16441 10.2109 4.7459C12.1373 6.67121 13.7261 8.23369 13.7417 8.21808C13.7573 8.20248 13.7752 8.16108 13.8785 7.83859C14.2516 6.67406 14.4746 6.71144 15.4681 8.10491L15.8498 8.64036H16.8055C17.7025 8.64036 17.7699 8.64856 17.9029 8.7734C18.1485 9.00422 18.0904 9.17342 17.4846 9.99227L16.9248 10.7489L17.2092 11.6092C17.6959 13.0806 17.5686 13.2038 16.076 12.7064L15.2394 12.4276L14.4964 12.9817C13.3039 13.8712 13.1489 13.7951 13.1489 12.3202V11.3494L12.461 10.8669C11.2201 9.99661 11.1318 9.77374 12.2924 9.41557C12.5231 9.34439 12.7189 9.34132 12.765 9.25671C12.8698 9.06429 12.2004 8.45018 9.40639 5.65461C8.80169 5.04957 8.29839 4.54359 7.88088 4.11911L1.41422 10.5858ZM19.1102 10.587C19.1889 10.7617 19.2912 10.8598 19.5003 10.9613L19.7836 11.099L19.4966 11.2619C19.3335 11.3543 19.1796 11.4966 19.1405 11.591C19.0122 11.9007 18.9234 11.9157 18.7724 11.6535C18.697 11.5225 18.528 11.3535 18.397 11.2781C18.1347 11.1272 18.1499 11.0383 18.4597 10.91C18.5512 10.8721 18.6811 10.7402 18.7483 10.6169C18.9136 10.3138 18.9844 10.308 19.1102 10.587ZM16.1248 11.2705C15.8997 10.6633 15.9121 10.5628 16.2698 10.0902C16.4724 9.82263 16.5741 9.68964 16.5413 9.62355C16.5084 9.5575 16.3411 9.55828 16.0059 9.55828C15.7161 9.55828 15.5592 9.5597 15.4305 9.50016C15.2735 9.42749 15.1586 9.26403 14.8953 8.8964C14.6238 8.51724 14.6142 8.52232 14.4329 9.14326C14.2665 9.71292 14.229 9.74939 13.6101 9.94307C13.004 10.1327 13.0024 10.1405 13.4939 10.4756C14.0432 10.8502 14.0668 10.8937 14.0668 11.5301C14.0668 11.8428 14.0667 12.0013 14.1304 12.0334C14.1959 12.0664 14.3288 11.9657 14.5988 11.7613C15.0667 11.4071 15.1014 11.4026 15.7381 11.6146C16.3225 11.8093 16.324 11.8078 16.1248 11.2705ZM15.8428 13.9123C15.8832 14.0008 15.982 14.1031 16.0624 14.1398C16.2413 14.2213 16.2501 14.31 16.0846 14.3625C16.0164 14.3842 15.9178 14.4673 15.8654 14.5472L15.7702 14.6926L15.3363 14.2587L15.4693 14.1268C15.5424 14.0542 15.6399 13.9401 15.6859 13.8731C15.7675 13.7543 15.7713 13.7552 15.8428 13.9123ZM10.794 13.148C11.0867 13.2478 11.2891 13.2312 11.6955 13.0746C11.8249 13.0247 11.8349 13.1384 11.7317 13.4831C11.6771 13.6653 11.6783 13.7981 11.7372 14.0609C11.831 14.4799 11.824 14.4873 11.4398 14.3746C11.1652 14.2941 11.0938 14.2941 10.8192 14.3746C10.4366 14.4868 10.4244 14.475 10.5186 14.0823C10.5797 13.8274 10.5792 13.701 10.5156 13.4361C10.4184 13.0309 10.4263 13.0227 10.794 13.148ZM9.29323 10.1694C9.37419 10.3281 9.50294 10.4569 9.66162 10.5378C9.96368 10.6919 9.96563 10.7365 9.67612 10.867C9.53262 10.9318 9.39432 11.0614 9.30712 11.2129C9.13602 11.5102 9.10732 11.5121 8.95849 11.2357C8.89344 11.115 8.73593 10.9566 8.60846 10.8839C8.31987 10.7191 8.32023 10.6988 8.61489 10.5332C8.76818 10.4471 8.89228 10.3138 8.96076 10.1621C9.09465 9.86511 9.13847 9.86608 9.29323 10.1694Z" fill="#F54D27"/>
</g>
<defs>
<filter id="filter0_i" x="0.82843" y="0.828415" width="22.3432" height="22.3432" filterUnits="userSpaceOnUse" color-interpolation-filters="sRGB">
<feFlood flood-opacity="0" result="BackgroundImageFix"/>
<feBlend mode="normal" in="SourceGraphic" in2="BackgroundImageFix" result="shape"/>
<feColorMatrix in="SourceAlpha" type="matrix" values="0 0 0 0 0 0 0 0 0 0 0 0 0 0 0 0 0 0 127 0" result="hardAlpha"/>
<feOffset/>
<feGaussianBlur stdDeviation="1.5"/>
<feComposite in2="hardAlpha" operator="arithmetic" k2="-1" k3="1"/>
<feColorMatrix type="matrix" values="0 0 0 0 0 0 0 0 0 0 0 0 0 0 0 0 0 0 0.18 0"/>
<feBlend mode="normal" in2="shape" result="effect1_innerShadow"/>
</filter>
</defs>
</svg>
